<svg id="Layer_1" xmlns="http://www.w3.org/2000/svg" version="1.1" viewBox="0 0 512 512" height='128' width='128' stroke= '#000' fill='none' stroke-miterlimit='10' stroke-width='3'>
  <path class="st0" d="M154.5,11.6H2v425.7c0,34.7,29.4,62,64,59.6h0V63.6h88.5c127.9,0,194.7,74.5,194.7,194s-37.7,150.1-127.5,169.3c0,0,76.2-5,92.1-7.8,40.3-7.2,74.9-47.4,90-85.4,7.7-19.3,10.8-42.1,10.8-76,0-151.8-99.1-246-260-246Z"/>
  <path class="st0" d="M510,257.2c0,155.3-101.4,249.6-266.1,249.6H100.1l-1-315.7h0c0-.1-.2-57.8-.2-57.8h115.5s77.3,1.2,88.3,57.8v.6c-2-.4-4.1-.8-6.1-1.2-15.2-2.6-31.5-4-49-4h-83.2l1.2,266.3h78.3c40.5,0,74.9-7,103.3-20.3,63.3-29.7,94.6-90.9,96-175.3,2.1-132.5-65.4-195.9-128.1-227.1-15.5-7.7-34.1-15.3-56.5-22.1,0,0,24-4.4,56.5-1.9,32.2,2.5,72.6,6.9,106.3,34.2,0,0,42.8,35.5,54.4,60.7,23.2,43.8,34.3,97.6,34.3,156.2Z"/>
</svg>