<?xml version="1.0" encoding="UTF-8"?>
<svg id="Layer_1" xmlns="http://www.w3.org/2000/svg" version="1.1" width='128' height ='128' viewBox="0 0 128 128">
  <defs>
    <style>
      .st0 {
        fill: none;
        stroke: #fff;
        stroke-miterlimit: 2.5;
        stroke-width: 3px;
      }
    </style>
  </defs>
  <path class="st0" d="M39,4.1H1.5v104.7c0,8.5,7.2,15.3,15.7,14.7h0V16.9h21.8c31.5,0,47.9,18.3,47.9,47.7s-9.3,36.9-31.4,41.7c0,0,18.8-1.2,22.7-1.9,9.9-1.8,18.4-11.7,22.1-21,1.9-4.7,2.7-10.4,2.7-18.7,0-37.4-24.4-60.5-64-60.5h0Z"/>
  <path class="st0" d="M126.5,64.1c0,38.2-25,61.4-65.5,61.4H25.6l-.2-77.7h0s0-14.2,0-14.2h28.4s19,.3,21.7,14.2h0c-.5,0-1,0-1.5-.1-3.7-.6-7.8-1-12.1-1h-20.5l.3,65.5h19.3c10,0,18.4-1.7,25.4-5,15.6-7.3,23.3-22.4,23.6-43.1.5-32.6-16.1-48.2-31.5-55.9-3.8-1.9-8.4-3.8-13.9-5.4,0,0,5.9-1.1,13.9-.5,7.9.6,17.9,1.7,26.2,8.4,0,0,10.5,8.7,13.4,14.9,5.7,10.8,8.4,24,8.4,38.4h0Z"/>
</svg>