<?xml version="1.0" encoding="UTF-8"?>
<svg id="Layer_1" xmlns="http://www.w3.org/2000/svg" version="1.1" viewBox="0 0 512 512">
  <!-- Generator: Adobe Illustrator 29.0.0, SVG Export Plug-In . SVG Version: 2.1.0 Build 186)  -->
  <defs>
    <style>
      .st0 {
        fill: #262621;
      }
    </style>
  </defs>
  <path class="st0" d="M153.7,9.7H0v429c0,34.9,29.6,62.5,64.5,60.1h0V62.1h89.2c128.9,0,196.2,75.1,196.2,195.5s-38,151.3-128.5,170.6c0,0,76.8-5,92.8-7.9,40.7-7.2,75.5-47.7,90.7-86.1,7.7-19.5,10.9-42.4,10.9-76.6,0-153-99.9-247.9-262.1-247.9Z"/>
  <path class="st0" d="M512,257.2c0,156.6-102.2,251.5-268.2,251.5H98.9l-1.1-318.2h0c0-.1-.2-58.2-.2-58.2h116.4s77.9,1.3,89,58.2v.6c-2-.4-4.1-.8-6.2-1.2-15.3-2.7-31.8-4-49.4-4h-83.9l1.2,268.4h79c40.8,0,75.5-7.1,104.1-20.5,63.8-29.9,95.3-91.6,96.7-176.7,2.1-133.6-65.9-197.4-129.1-228.9-15.6-7.8-34.4-15.4-57-22.3,0,0,24.2-4.5,57-1.9,32.4,2.5,73.2,7,107.1,34.5,0,0,43.1,35.8,54.8,61.1,23.4,44.1,34.6,98.3,34.6,157.5Z"/>
</svg>